<?xml version="1.0" encoding="UTF-8"?>
<svg id="Layer_1" data-name="Layer 1" xmlns="http://www.w3.org/2000/svg" viewBox="0 0 145.47 145.47">
  <defs>
    <style>
      .cls-1 {
        fill: #fcbb73;
      }

      .cls-2 {
        fill: #4f1612;
      }
    </style>
  </defs>
  <path class="cls-1" d="M145.47,72.73C145.47,32.56,112.9,0,72.73,0S0,32.56,0,72.73c0,5.86.71,11.56,2.02,17.02.23.97.32.88.09-.09.36-.37.6-.6.84-.82,2.86-2.57,6.09-13.04,8-17.43,4.16-9.54,12-22.58,23.58-34.29,11.57-11.72,20.15-13.43,34.44-15.72,14.29-2.29,42.01,9.29,46.58,14.15,4.57,4.86,2.58,10.43,2.58,10.43l-.06.41c-.76-1.25-1.25-2.04-1.25-2.04,0,0-2.43-2.57-4,0-1.57,2.57-4.55,11.34-5,15.52-.25,2.34-.18,7.53-5.79,8.29-2.83.39-6.5,0-9.79.48-6.41.94-12.04,2.84-11.72,3.84.45,1.42,8.44-1.28,15.65-1.05,6.61.22,8.27,1.97,10.73,3.32,2,1.1,4.05,1.58,6.08,1.66-2.3,2.5-7.47,8.22-9.44,11.29-2.57,4-3.57,8.72-2.57,11s5.72,9.43,8.57,13.86c1.72,2.67,5.4,9.74,8.06,17.38,16.95-13.32,27.85-33.98,27.85-57.21ZM122.4,74.41c-3.51,1.58-6.53.83-10.81.11-4.14-.69-8.74-4.34-8.74-4.34,0,0,2.27-.27,4.66-2.25,1.79-1.49,2.69-3.74,6.6-5.06,2.86-.97,3.21-2.06,4.46-4.58,1.64-3.31-1.08-6.74,1-9.18,1.25-1.47,6.92,11.77,8.05,15.6,2.71,9.15-3.64,18.79-3.64,18.79l-1.57-9.09Z"/>
  <polygon class="cls-2" points="117.62 129.94 117.62 129.94 117.61 129.95 117.62 129.94"/>
  <path class="cls-2" d="M2.83,92.81c-.02-.06-.03-.12-.05-.18.02.06.03.12.05.18Z"/>
  <path class="cls-2" d="M100.98,98.71c-1-2.29,0-7,2.57-11,1.97-3.07,7.14-8.79,9.44-11.29-2.03-.08-4.09-.57-6.08-1.66-2.46-1.35-4.12-3.1-10.73-3.32-7.21-.23-15.2,2.46-15.65,1.05-.32-1.01,5.3-2.91,11.72-3.84,3.29-.48,6.95-.09,9.79-.48,5.6-.77,5.54-5.96,5.79-8.29.45-4.18,3.43-12.95,5-15.52,1.57-2.57,4,0,4,0,0,0,.49.79,1.25,2.04l.06-.41s2-5.57-2.58-10.43c-4.57-4.86-32.29-16.43-46.58-14.15-14.29,2.29-22.86,4-34.44,15.72-11.58,11.72-19.42,24.76-23.58,34.29-1.92,4.4-5.14,14.86-8,17.43-.24.22-.57.54-.93.91.23.97.49,1.92.75,2.88.02.06.03.12.05.18.27.95.56,1.88.87,2.81,0,.02.01.04.02.06,1.58,4.77,3.65,9.32,6.14,13.59.03.05.06.1.09.16.46.79.94,1.56,1.43,2.33.07.11.15.23.22.34.48.75.98,1.49,1.49,2.22.07.1.14.2.21.29,2.19,3.1,4.61,6.02,7.25,8.74.09.1.18.2.28.29.54.55,1.1,1.09,1.66,1.63.22.21.43.42.65.62.52.49,1.06.97,1.6,1.45.27.24.54.47.81.7.52.45,1.05.89,1.59,1.33.3.24.6.47.9.71.54.42,1.07.84,1.62,1.24.3.22.6.43.9.64,1.08.77,2.18,1.51,3.3,2.22.31.19.61.4.92.59.49.3.99.58,1.48.87.45.26.9.53,1.36.78.48.27.97.52,1.46.78.49.25.98.51,1.47.75.48.24.96.47,1.45.69.52.25,1.05.48,1.58.72.47.21.94.41,1.41.61.58.24,1.17.47,1.77.7.43.17.87.34,1.3.5.79.28,1.58.55,2.38.81.25.08.5.17.76.25,1.04.32,2.1.62,3.16.9.37.1.75.18,1.12.27.72.18,1.44.35,2.17.5.43.09.87.17,1.3.26.68.13,1.37.26,2.06.37.45.07.9.14,1.35.21.7.1,1.4.19,2.11.27.44.05.88.1,1.32.14.77.07,1.55.13,2.32.18.38.02.75.06,1.14.07,1.16.05,2.32.09,3.49.09h0c1.17,0,2.32-.03,3.48-.09.39-.02.77-.05,1.16-.07.76-.05,1.52-.1,2.27-.17.46-.04.92-.1,1.38-.15.67-.08,1.34-.16,2-.25.49-.07.98-.14,1.46-.22.62-.1,1.24-.21,1.86-.33.51-.1,1.01-.19,1.52-.29.58-.12,1.16-.26,1.73-.4,2.21-.53,4.38-1.15,6.51-1.87.33-.11.66-.22.98-.33.7-.25,1.39-.51,2.08-.78.29-.11.58-.23.87-.34.72-.29,1.43-.59,2.14-.91.22-.1.44-.2.65-.3.77-.35,1.53-.71,2.28-1.08.06-.03.12-.06.17-.09,4.38-2.2,8.51-4.83,12.34-7.83,0,0,0,0,0,0-2.66-7.64-6.34-14.71-8.06-17.38-2.86-4.43-7.57-11.57-8.57-13.86ZM96.32,34.2c2.92,1.32,6.17,3.7,6.32,7.21l-.3.03c-2.42-1.46-3.91-1.64-5.18-4.08-.39-.72-.76-1.58-.99-2.89l.14-.26ZM73.59,28.32c2.4.6,4.69,1.63,6.82,2.91,2.08,1.36,4,2.98,5.6,4.87l-.22.2c-5.25-.79-9.24-3.33-12.29-7.7l.09-.29ZM63.45,33.56l-.09.29c-4.58-1.23-9.29-1.56-13.99-.91l-.05-.3c3.65-4.32,11.08-3.84,14.13.92ZM57.31,62.54c-5.93,2.29-11.69,5.05-16.62,9.12l-.2-.23c2.21-6.72,9.92-10.58,16.72-9.18l.1.28ZM46.41,43.07c2.47.45,4.75,1.37,6.48,3.44l-.08.29c-5.79-1.44-11.69-.92-17.52,0l-.05-.3c3.01-2.98,7.11-3.97,11.17-3.44ZM13.29,89.83c1.13-2.16,2.54-4.17,4.16-6,1.69-1.75,3.69-3.35,6.06-4.07l.1.28c-2.5,4.52-5.07,8.08-10.07,9.94l-.26-.15ZM24.54,102.91c-1.75,2.22-2.11,3.68-4.7,4.63-.76.29-1.66.56-2.99.62l-.25-.17c1.67-2.74,4.44-5.66,7.94-5.37v.3ZM22.64,67.35l-.24-.19c3.47-4.85,8.45-9.09,14.46-10.17l.07.29c-3.17,3.4-6.1,5.67-9.94,8.07-1.25.74-2.6,1.48-4.35,1.99ZM32.23,92.77c2.33-4.24,5.78-8.17,10.33-10.06l.13.27c-1.63,3.56-3.51,5.93-6.59,8.13-.98.68-2.08,1.32-3.6,1.81l-.26-.16ZM38.31,113.68c-.98.68-2.08,1.32-3.6,1.81l-.26-.15c2.33-4.24,5.78-8.17,10.33-10.06l.13.27c-1.63,3.56-3.51,5.93-6.59,8.13ZM55.2,82.94l-.24-.18c-.52-5.39,5.53-9.88,10.5-7.59l.09.29c-4.09,1.49-7.56,4.19-10.36,7.49ZM62.39,101.26c-.96.97-1.98,1.98-3.42,3.05l-.29-.09c1.46-5.65,5.77-10.97,11.63-12.31l.08.29c-2.82,3.45-4.99,5.97-8,9.06ZM64.59,50.57c0-4.37,3.4-8.79,8.6-7.45,6.71,1.74,11.93,4.07,11.93,7.36,0,3-5.44,8-10.81,8s-9.72-3.54-9.72-7.91Z"/>
  <path class="cls-1" d="M85.12,50.48c0-3.29-5.23-5.62-11.93-7.36-5.2-1.35-8.6,3.08-8.6,7.45s4.35,7.91,9.72,7.91,10.81-5,10.81-8ZM74.85,53.43c-1.67,0-3.03-1.35-3.03-3.03s1.35-3.03,3.03-3.03,3.03,1.36,3.03,3.03-1.35,3.03-3.03,3.03Z"/>
  <path class="cls-2" d="M74.85,47.38c-1.67,0-3.03,1.36-3.03,3.03s1.35,3.03,3.03,3.03,3.03-1.35,3.03-3.03-1.35-3.03-3.03-3.03Z"/>
  <path class="cls-1" d="M63.36,33.85l.09-.29c-3.05-4.76-10.48-5.24-14.13-.92l.05.3c4.7-.64,9.42-.31,13.99.91Z"/>
  <path class="cls-1" d="M85.79,36.3l.22-.2c-1.59-1.89-3.52-3.51-5.6-4.87-2.13-1.28-4.42-2.31-6.82-2.91l-.09.29c3.04,4.37,7.03,6.91,12.29,7.7Z"/>
  <path class="cls-1" d="M52.81,46.8l.08-.29c-1.73-2.07-4.01-2.99-6.48-3.44-4.06-.54-8.15.45-11.17,3.44l.05.3c5.83-.93,11.73-1.44,17.52,0Z"/>
  <path class="cls-1" d="M40.49,71.43l.2.23c4.93-4.07,10.69-6.83,16.62-9.12l-.1-.28c-6.8-1.41-14.51,2.46-16.72,9.18Z"/>
  <path class="cls-1" d="M36.94,57.29l-.07-.29c-6.02,1.08-10.99,5.32-14.46,10.17l.24.19c1.75-.52,3.11-1.25,4.35-1.99,3.84-2.4,6.77-4.67,9.94-8.07Z"/>
  <path class="cls-1" d="M65.47,75.16c-4.97-2.29-11.03,2.2-10.5,7.59l.24.18c2.8-3.31,6.26-6,10.36-7.49l-.09-.29Z"/>
  <path class="cls-1" d="M58.68,104.23l.29.09c1.43-1.08,2.46-2.09,3.42-3.05,3.02-3.09,5.19-5.61,8-9.06l-.08-.29c-5.86,1.35-10.17,6.67-11.63,12.31Z"/>
  <path class="cls-1" d="M102.34,41.44l.3-.03c-.15-3.51-3.4-5.89-6.32-7.21l-.14.26c.23,1.32.6,2.18.99,2.89,1.26,2.44,2.75,2.63,5.18,4.08Z"/>
  <path class="cls-1" d="M16.61,107.98l.25.17c1.33-.06,2.23-.32,2.99-.62,2.58-.95,2.95-2.4,4.7-4.63v-.3c-3.5-.29-6.26,2.64-7.93,5.37Z"/>
  <path class="cls-1" d="M42.68,82.99l-.13-.27c-4.55,1.89-8,5.82-10.33,10.06l.26.16c1.53-.49,2.62-1.13,3.6-1.81,3.08-2.2,4.96-4.58,6.59-8.13Z"/>
  <path class="cls-1" d="M34.45,115.34l.26.15c1.53-.49,2.62-1.13,3.6-1.81,3.08-2.2,4.96-4.58,6.59-8.13l-.13-.27c-4.55,1.89-8,5.82-10.33,10.06Z"/>
  <path class="cls-1" d="M23.62,80.05l-.1-.28c-2.38.71-4.37,2.32-6.06,4.07-1.63,1.83-3.04,3.85-4.16,6l.26.15c5-1.85,7.57-5.42,10.07-9.94Z"/>
  <path class="cls-2" d="M127.62,64.71c-1.14-3.83-6.8-17.07-8.05-15.6-2.08,2.44.64,5.87-1,9.18-1.25,2.52-1.59,3.61-4.46,4.58-3.91,1.33-4.81,3.57-6.6,5.06-2.39,1.98-4.66,2.25-4.66,2.25,0,0,4.61,3.64,8.74,4.34,4.28.72,7.3,1.47,10.81-.11l1.57,9.09s6.36-9.65,3.64-18.79Z"/>
</svg>